<svg xmlns="http://www.w3.org/2000/svg" viewBox="0 0 100 100">
  <defs>
    <linearGradient id="grad1" x1="0%" y1="0%" x2="100%" y2="100%">
      <stop offset="0%" stop-color="#ff4757" /> <stop offset="100%" stop-color="#4ade80" /> </linearGradient>
    <linearGradient id="grad2" x1="100%" y1="0%" x2="0%" y2="100%">
      <stop offset="0%" stop-color="#4ade80" /> <stop offset="100%" stop-color="#5b0b0b" /> </linearGradient>
  </defs>
  
  <path d="M 45,5 C 45,35 85,45 85,45 C 45,55 45,85 45,85 C 45,55 5,45 5,45 C 45,35 45,5 45,5 Z" fill="url(#grad1)" />
  
  <path d="M 75,55 C 75,65 95,70 95,70 C 75,75 75,90 75,90 C 75,75 55,70 55,70 C 75,65 75,55 75,55 Z" fill="url(#grad2)" />
</svg>
